<!-- Generated by IcoMoon.io -->
<svg version="1.1" xmlns="http://www.w3.org/2000/svg" width="24" height="24" viewBox="0 0 24 24">
<title>account</title>
<path fill="#3367d6" d="M20.831 16.39v-1.653q0-1.446-2.272-2.376t-4.338-0.93-4.338 0.93-2.272 2.376v1.653h13.221zM14.221 3.169q-1.343 0-2.324 0.981t-0.981 2.324 0.981 2.324 2.324 0.981 2.324-0.981 0.981-2.324-0.981-2.324-2.324-0.981zM20.831 1q0.878 0 1.523 0.646t0.646 1.523v13.221q0 0.878-0.646 1.549t-1.523 0.671h-13.221q-0.878 0-1.549-0.671t-0.671-1.549v-13.221q0-0.878 0.671-1.523t1.549-0.646h13.221zM3.169 5.39v15.441h15.441v2.169h-15.441q-0.878 0-1.523-0.646t-0.646-1.523v-15.441h2.169z"></path>
</svg>
