<!-- Generated by IcoMoon.io -->
<svg version="1.1" xmlns="http://www.w3.org/2000/svg" width="24" height="24" viewBox="0 0 24 24">
<title>class</title>
<path fill="#3367d6" d="M8.678 12.84q1.142 0 2.647 0.311-2.647 1.453-2.647 3.841v2.492h-7.734v-2.751q0-1.194 1.428-2.128t3.14-1.35 3.166-0.415zM16.983 13.982q1.921 0 3.997 0.831t2.076 2.18v2.492h-12.147v-2.492q0-1.35 2.076-2.18t3.997-0.831zM8.678 10.66q-1.35 0-2.336-0.986t-0.986-2.336 0.986-2.336 2.336-0.986 2.336 0.986 0.986 2.336-0.986 2.336-2.336 0.986zM16.983 11.75q-1.142 0-1.947-0.805t-0.805-1.947 0.805-1.973 1.947-0.831 1.947 0.831 0.805 1.973-0.805 1.947-1.947 0.805z"></path>
</svg>
