<!-- Generated by IcoMoon.io -->
<svg version="1.1" xmlns="http://www.w3.org/2000/svg" width="24" height="24" viewBox="0 0 24 24">
<title>list</title>
<path fill="#3367d6" d="M6.148 3.852h16.352v2.297h-16.352v-2.297zM6.148 13.148v-2.297h16.352v2.297h-16.352zM6.148 20.148v-2.297h16.352v2.297h-16.352zM2.648 17.25q0.711 0 1.23 0.519t0.519 1.23-0.519 1.23-1.23 0.519-1.23-0.519-0.519-1.23 0.519-1.23 1.23-0.519zM2.648 3.25q0.711 0 1.23 0.492t0.519 1.258-0.519 1.258-1.23 0.492-1.23-0.492-0.519-1.258 0.519-1.258 1.23-0.492zM2.648 10.25q0.711 0 1.23 0.492t0.519 1.258-0.519 1.258-1.23 0.492-1.23-0.492-0.519-1.258 0.519-1.258 1.23-0.492z"></path>
</svg>
