<!-- Generated by IcoMoon.io -->
<svg version="1.1" xmlns="http://www.w3.org/2000/svg" width="24" height="24" viewBox="0 0 24 24">
<title>previous</title>
<path fill="#3367d6" d="M12.884 19.866l-6.616-6.616h14.482c0.69 0 1.25-0.56 1.25-1.25s-0.56-1.25-1.25-1.25h-14.482l6.616-6.616c0.489-0.489 0.489-1.28 0-1.768s-1.28-0.489-1.768 0l-8.75 8.75c-0.12 0.12-0.21 0.257-0.271 0.405-0.064 0.152-0.095 0.316-0.095 0.479 0 0.32 0.122 0.64 0.366 0.884l8.75 8.75c0.489 0.489 1.28 0.489 1.768 0s0.489-1.28 0-1.768z"></path>
</svg>
