<!-- Generated by IcoMoon.io -->
<svg version="1.1" xmlns="http://www.w3.org/2000/svg" width="24" height="24" viewBox="0 0 24 24">
<title>proceed</title>
<path fill="#3367d6" d="M11.116 4.134l6.616 6.616h-14.482c-0.69 0-1.25 0.56-1.25 1.25s0.56 1.25 1.25 1.25h14.482l-6.616 6.616c-0.489 0.489-0.489 1.28 0 1.768s1.28 0.489 1.768 0l8.75-8.75c0.115-0.115 0.208-0.253 0.271-0.405 0.126-0.306 0.126-0.651 0-0.958-0.061-0.148-0.151-0.285-0.271-0.405l-8.75-8.75c-0.489-0.489-1.28-0.489-1.768 0s-0.489 1.28 0 1.768z"></path>
</svg>
