<!-- Generated by IcoMoon.io -->
<svg version="1.1" xmlns="http://www.w3.org/2000/svg" width="24" height="24" viewBox="0 0 24 24">
<title>student</title>
<path fill="#3367d6" d="M4.667 18.13v1.203h14.667v-1.203q0-1.661-2.521-2.721t-4.813-1.060-4.813 1.060-2.521 2.721zM15.667 8.333q0-1.49-1.089-2.578t-2.578-1.089-2.578 1.089-1.089 2.578 1.089 2.578 2.578 1.089 2.578-1.089 1.089-2.578zM1 3.464q0-1.031 0.716-1.747t1.747-0.716h17.073q0.974 0 1.719 0.745t0.745 1.719v17.073q0 0.974-0.745 1.719t-1.719 0.745h-17.073q-1.031 0-1.747-0.716t-0.716-1.747v-17.073z"></path>
</svg>
